<mxfile host="Electron" modified="2021-12-21T09:15:28.927Z" agent="5.0 (Windows NT 10.0; Win64; x64) AppleWebKit/537.36 (KHTML, like Gecko) draw.io/15.7.3 Chrome/91.0.4472.164 Electron/13.6.1 Safari/537.36" etag="dU5dA0ucQnEEdtN_Fb8Y" compressed="false" version="15.7.3" type="device">
  <diagram id="UJWsQ4LCsPfUxE9BL8zf" name="Seite-1">
    <mxGraphModel dx="2354" dy="2383" grid="1" gridSize="10" guides="1" tooltips="1" connect="1" arrows="1" fold="1" page="1" pageScale="1" pageWidth="1169" pageHeight="827" math="0" shadow="0">
      <root>
        <mxCell id="0" />
        <mxCell id="1" parent="0" />
        <mxCell id="d351gr_Q7ugyejpmsUi6-1" value="Angriffsziel&#xa;Automatisierte Ablaufsteuerung" style="whiteSpace=wrap;shape=trapezoid;size=0.075;" parent="1" vertex="1">
          <mxGeometry x="960" y="-1654" width="300" height="60" as="geometry" />
        </mxCell>
        <mxCell id="kprr7zVfryuXTpy--eaS-2" value="Einschränkung einer kritischen Dienstleistung" style="rounded=1;whiteSpace=wrap;" parent="1" vertex="1">
          <mxGeometry x="-230" y="-1550" width="222" height="48" as="geometry" />
        </mxCell>
        <mxCell id="kprr7zVfryuXTpy--eaS-3" value="Reputationsschaden Betreiber" style="rounded=1;whiteSpace=wrap;" parent="1" vertex="1">
          <mxGeometry x="880" y="-1550" width="222" height="48" as="geometry" />
        </mxCell>
        <mxCell id="kprr7zVfryuXTpy--eaS-8" value="Marktmanipulation&#xa;zum Schaden/Vorteil einer Gruppe" style="rounded=1;whiteSpace=wrap;" parent="1" vertex="1">
          <mxGeometry x="1620" y="-1550" width="222" height="48" as="geometry" />
        </mxCell>
        <mxCell id="kprr7zVfryuXTpy--eaS-11" value="Verletzung von Eigentum" style="rounded=1;whiteSpace=wrap;" parent="1" vertex="1">
          <mxGeometry x="1880" y="-1550" width="222" height="48" as="geometry" />
        </mxCell>
        <mxCell id="i0_VuYSUXwv3GOk7AtMA-3" value="Störung der Disposition" style="fillColor=#fee599;whiteSpace=wrap;" parent="1" vertex="1">
          <mxGeometry x="-130" y="-1210" width="150" height="60" as="geometry" />
        </mxCell>
        <mxCell id="i0_VuYSUXwv3GOk7AtMA-4" value="siehe Anwendungsfall Virtuelles Kuppeln" style="text;strokeColor=none;fillColor=none;align=center;verticalAlign=middle;whiteSpace=wrap;rounded=0;" parent="1" vertex="1">
          <mxGeometry x="-122.5" y="-1140" width="135" height="20" as="geometry" />
        </mxCell>
        <mxCell id="i0_VuYSUXwv3GOk7AtMA-6" value="Störung der Übergänge zwischen Verkehrsträgern " style="fillColor=#fee599;whiteSpace=wrap;" parent="1" vertex="1">
          <mxGeometry x="2180" y="-1380" width="150" height="60" as="geometry" />
        </mxCell>
        <mxCell id="i0_VuYSUXwv3GOk7AtMA-7" value="siehe Anwendungsfall &quot;Intermodale Reisekette&quot;" style="text;strokeColor=none;fillColor=none;align=center;verticalAlign=middle;whiteSpace=wrap;rounded=0;" parent="1" vertex="1">
          <mxGeometry x="2200" y="-1300" width="110" height="20" as="geometry" />
        </mxCell>
        <mxCell id="i0_VuYSUXwv3GOk7AtMA-8" value="Manipulation der Fahrsteuerung " style="whiteSpace=wrap;" parent="1" vertex="1">
          <mxGeometry x="780" y="-990" width="150" height="60" as="geometry" />
        </mxCell>
        <mxCell id="i0_VuYSUXwv3GOk7AtMA-9" value="Manipulation von Nahfeld-Sensoren am Fahrzeug (u.a. für Geschwindigkeits-und Abstandsmessung)" style="verticalAlign=middle;align=center;gradientColor=none;labelBackgroundColor=none;rounded=0;whiteSpace=wrap;fillColor=#FEFFFF;" parent="1" vertex="1">
          <mxGeometry x="550" y="-762.3400000000001" width="160" height="70" as="geometry" />
        </mxCell>
        <mxCell id="i0_VuYSUXwv3GOk7AtMA-10" value="Manipulation&#xa;von Sensordaten" style="verticalAlign=middle;align=center;gradientColor=none;labelBackgroundColor=none;rounded=0;whiteSpace=wrap;fillColor=#D7E3BF;" parent="1" vertex="1">
          <mxGeometry x="370" y="-593.8400000000001" width="160" height="41" as="geometry" />
        </mxCell>
        <mxCell id="i0_VuYSUXwv3GOk7AtMA-11" value="Blockade der&#xa;Sensoren" style="verticalAlign=middle;align=center;gradientColor=none;labelBackgroundColor=none;rounded=0;whiteSpace=wrap;fillColor=#D7E3BF;" parent="1" vertex="1">
          <mxGeometry x="570" y="-587.8400000000001" width="120" height="35" as="geometry" />
        </mxCell>
        <mxCell id="i0_VuYSUXwv3GOk7AtMA-12" value="" style="endArrow=classic;" parent="1" source="i0_VuYSUXwv3GOk7AtMA-9" target="i0_VuYSUXwv3GOk7AtMA-10" edge="1">
          <mxGeometry width="50" height="50" relative="1" as="geometry">
            <mxPoint x="470" y="-792.8400000000001" as="sourcePoint" />
            <mxPoint x="520" y="-842.8400000000001" as="targetPoint" />
          </mxGeometry>
        </mxCell>
        <mxCell id="i0_VuYSUXwv3GOk7AtMA-13" value="" style="endArrow=classic;entryX=0.433;entryY=0;entryDx=0;entryDy=0;entryPerimeter=0;" parent="1" source="i0_VuYSUXwv3GOk7AtMA-9" target="i0_VuYSUXwv3GOk7AtMA-11" edge="1">
          <mxGeometry width="50" height="50" relative="1" as="geometry">
            <mxPoint x="477" y="-812.8400000000001" as="sourcePoint" />
            <mxPoint x="570" y="-732.8400000000001" as="targetPoint" />
          </mxGeometry>
        </mxCell>
        <mxCell id="0azLL2mrelKw0A_vAqfH-1" value="" style="edgeStyle=none;rounded=0;orthogonalLoop=1;jettySize=auto;html=1;" parent="1" source="i0_VuYSUXwv3GOk7AtMA-8" target="i0_VuYSUXwv3GOk7AtMA-14" edge="1">
          <mxGeometry relative="1" as="geometry" />
        </mxCell>
        <mxCell id="i0_VuYSUXwv3GOk7AtMA-14" value="Störung der&#xa;V2V-Kommunikation" style="verticalAlign=middle;align=center;fillColor=#FFFFFF;gradientColor=none;labelBackgroundColor=none;rounded=0;whiteSpace=wrap;" parent="1" vertex="1">
          <mxGeometry x="670" y="-880" width="150" height="48" as="geometry" />
        </mxCell>
        <mxCell id="i0_VuYSUXwv3GOk7AtMA-15" value="" style="endArrow=classic;" parent="1" source="i0_VuYSUXwv3GOk7AtMA-14" target="i0_VuYSUXwv3GOk7AtMA-9" edge="1">
          <mxGeometry width="50" height="50" relative="1" as="geometry">
            <mxPoint x="720.2466367713005" y="-814.8400000000001" as="sourcePoint" />
            <mxPoint x="560" y="-862.8400000000001" as="targetPoint" />
          </mxGeometry>
        </mxCell>
        <mxCell id="i0_VuYSUXwv3GOk7AtMA-16" value="GNSS Jamming" style="verticalAlign=middle;align=center;fillColor=#fee599;gradientColor=none;labelBackgroundColor=none;rounded=0;whiteSpace=wrap;" parent="1" vertex="1">
          <mxGeometry x="880" y="-587.8400000000001" width="120" height="35" as="geometry" />
        </mxCell>
        <mxCell id="i0_VuYSUXwv3GOk7AtMA-17" value="GNSS Spoofing" style="verticalAlign=middle;align=center;fillColor=#fee599;gradientColor=none;labelBackgroundColor=none;rounded=0;whiteSpace=wrap;" parent="1" vertex="1">
          <mxGeometry x="1040" y="-587.8400000000001" width="120" height="35" as="geometry" />
        </mxCell>
        <mxCell id="i0_VuYSUXwv3GOk7AtMA-18" value="" style="endArrow=classic;" parent="1" source="i0_VuYSUXwv3GOk7AtMA-9" target="i0_VuYSUXwv3GOk7AtMA-16" edge="1">
          <mxGeometry width="50" height="50" relative="1" as="geometry">
            <mxPoint x="520" y="-692.8400000000001" as="sourcePoint" />
            <mxPoint x="570" y="-742.8400000000001" as="targetPoint" />
          </mxGeometry>
        </mxCell>
        <mxCell id="i0_VuYSUXwv3GOk7AtMA-19" value="" style="endArrow=classic;" parent="1" source="i0_VuYSUXwv3GOk7AtMA-9" target="i0_VuYSUXwv3GOk7AtMA-17" edge="1">
          <mxGeometry width="50" height="50" relative="1" as="geometry">
            <mxPoint x="540" y="-692.8400000000001" as="sourcePoint" />
            <mxPoint x="590" y="-742.8400000000001" as="targetPoint" />
          </mxGeometry>
        </mxCell>
        <mxCell id="0azLL2mrelKw0A_vAqfH-2" value="" style="edgeStyle=none;rounded=0;orthogonalLoop=1;jettySize=auto;html=1;" parent="1" source="i0_VuYSUXwv3GOk7AtMA-8" target="i0_VuYSUXwv3GOk7AtMA-20" edge="1">
          <mxGeometry relative="1" as="geometry" />
        </mxCell>
        <mxCell id="i0_VuYSUXwv3GOk7AtMA-20" value="Störung der&#xa;V2I-Kommunikation" style="verticalAlign=middle;align=center;fillColor=#FFFFFF;gradientColor=none;labelBackgroundColor=none;rounded=0;whiteSpace=wrap;" parent="1" vertex="1">
          <mxGeometry x="880" y="-880" width="150" height="48" as="geometry" />
        </mxCell>
        <mxCell id="i0_VuYSUXwv3GOk7AtMA-21" style="rounded=0;orthogonalLoop=1;jettySize=auto;" parent="1" source="i0_VuYSUXwv3GOk7AtMA-22" target="i0_VuYSUXwv3GOk7AtMA-38" edge="1">
          <mxGeometry relative="1" as="geometry" />
        </mxCell>
        <mxCell id="i0_VuYSUXwv3GOk7AtMA-22" value="Manipulation&#xa;von FRMCS" style="verticalAlign=middle;align=center;gradientColor=none;labelBackgroundColor=none;rounded=0;whiteSpace=wrap;fillColor=#FFFFFF;" parent="1" vertex="1">
          <mxGeometry x="710" y="-587.8400000000001" width="120" height="35" as="geometry" />
        </mxCell>
        <mxCell id="i0_VuYSUXwv3GOk7AtMA-23" value="" style="endArrow=classic;" parent="1" source="i0_VuYSUXwv3GOk7AtMA-20" target="i0_VuYSUXwv3GOk7AtMA-16" edge="1">
          <mxGeometry width="50" height="50" relative="1" as="geometry">
            <mxPoint x="939.3575418994415" y="-814.8400000000001" as="sourcePoint" />
            <mxPoint x="770" y="-592.8400000000001" as="targetPoint" />
          </mxGeometry>
        </mxCell>
        <mxCell id="i0_VuYSUXwv3GOk7AtMA-24" value="" style="endArrow=classic;" parent="1" source="i0_VuYSUXwv3GOk7AtMA-20" target="i0_VuYSUXwv3GOk7AtMA-17" edge="1">
          <mxGeometry width="50" height="50" relative="1" as="geometry">
            <mxPoint x="953.6592178770952" y="-814.8400000000001" as="sourcePoint" />
            <mxPoint x="870" y="-832.8400000000001" as="targetPoint" />
          </mxGeometry>
        </mxCell>
        <mxCell id="i0_VuYSUXwv3GOk7AtMA-25" value="" style="endArrow=classic;" parent="1" source="i0_VuYSUXwv3GOk7AtMA-9" target="i0_VuYSUXwv3GOk7AtMA-22" edge="1">
          <mxGeometry width="50" height="50" relative="1" as="geometry">
            <mxPoint x="520" y="-692.8400000000001" as="sourcePoint" />
            <mxPoint x="870" y="-832.8400000000001" as="targetPoint" />
          </mxGeometry>
        </mxCell>
        <mxCell id="i0_VuYSUXwv3GOk7AtMA-26" value="" style="endArrow=classic;" parent="1" source="i0_VuYSUXwv3GOk7AtMA-20" target="i0_VuYSUXwv3GOk7AtMA-22" edge="1">
          <mxGeometry width="50" height="50" relative="1" as="geometry">
            <mxPoint x="730" y="-868" as="sourcePoint" />
            <mxPoint x="1180" y="-686" as="targetPoint" />
          </mxGeometry>
        </mxCell>
        <mxCell id="i0_VuYSUXwv3GOk7AtMA-27" value="FRMCS Jamming" style="verticalAlign=middle;align=center;gradientColor=none;labelBackgroundColor=none;rounded=0;whiteSpace=wrap;fillColor=#D7E3BF;" parent="1" vertex="1">
          <mxGeometry x="880" y="-462.84000000000003" width="160" height="35" as="geometry" />
        </mxCell>
        <mxCell id="i0_VuYSUXwv3GOk7AtMA-28" value="Manipulation&#xa;der FRMCS-Datenübertragung an der Mobilstation" style="verticalAlign=middle;align=center;gradientColor=none;labelBackgroundColor=none;rounded=0;whiteSpace=wrap;fillColor=#D7E3BF;" parent="1" vertex="1">
          <mxGeometry x="690" y="-462.84000000000003" width="171" height="70" as="geometry" />
        </mxCell>
        <mxCell id="i0_VuYSUXwv3GOk7AtMA-29" value="" style="endArrow=classic;" parent="1" source="i0_VuYSUXwv3GOk7AtMA-22" target="i0_VuYSUXwv3GOk7AtMA-27" edge="1">
          <mxGeometry width="50" height="50" relative="1" as="geometry">
            <mxPoint x="1190" y="-602.8400000000001" as="sourcePoint" />
            <mxPoint x="1310" y="-572.8400000000001" as="targetPoint" />
          </mxGeometry>
        </mxCell>
        <mxCell id="i0_VuYSUXwv3GOk7AtMA-30" value="" style="endArrow=classic;exitX=0.517;exitY=1;exitDx=0;exitDy=0;exitPerimeter=0;" parent="1" source="i0_VuYSUXwv3GOk7AtMA-22" target="i0_VuYSUXwv3GOk7AtMA-28" edge="1">
          <mxGeometry width="50" height="50" relative="1" as="geometry">
            <mxPoint x="1170" y="-602.8400000000001" as="sourcePoint" />
            <mxPoint x="1220" y="-652.8400000000001" as="targetPoint" />
          </mxGeometry>
        </mxCell>
        <mxCell id="i0_VuYSUXwv3GOk7AtMA-31" style="edgeStyle=none;rounded=0;orthogonalLoop=1;jettySize=auto;html=1;" parent="1" source="i0_VuYSUXwv3GOk7AtMA-32" target="i0_VuYSUXwv3GOk7AtMA-39" edge="1">
          <mxGeometry relative="1" as="geometry" />
        </mxCell>
        <mxCell id="i0_VuYSUXwv3GOk7AtMA-32" value="Störung der Satellitenfunk-Kommunikation" style="whiteSpace=wrap;rounded=0;fillColor=#FFFFFF;" parent="1" vertex="1">
          <mxGeometry x="1240" y="-762.3400000000001" width="120" height="52.5" as="geometry" />
        </mxCell>
        <mxCell id="i0_VuYSUXwv3GOk7AtMA-33" value="" style="endArrow=classic;" parent="1" source="i0_VuYSUXwv3GOk7AtMA-20" target="i0_VuYSUXwv3GOk7AtMA-32" edge="1">
          <mxGeometry width="50" height="50" relative="1" as="geometry">
            <mxPoint x="1030" y="-815.9990909090907" as="sourcePoint" />
            <mxPoint x="890" y="-832.8400000000001" as="targetPoint" />
          </mxGeometry>
        </mxCell>
        <mxCell id="i0_VuYSUXwv3GOk7AtMA-34" value="Manipulation von Daten auf der Satellitenfunk-Strecke" style="whiteSpace=wrap;rounded=0;fillColor=#D7E3BF;" parent="1" vertex="1">
          <mxGeometry x="1200" y="-587.8400000000001" width="120" height="52.5" as="geometry" />
        </mxCell>
        <mxCell id="i0_VuYSUXwv3GOk7AtMA-35" value="Satellitenfunk Jamming" style="whiteSpace=wrap;rounded=0;fillColor=#D7E3BF;" parent="1" vertex="1">
          <mxGeometry x="1470" y="-587.8400000000001" width="120" height="52.5" as="geometry" />
        </mxCell>
        <mxCell id="i0_VuYSUXwv3GOk7AtMA-36" value="" style="endArrow=classic;" parent="1" source="i0_VuYSUXwv3GOk7AtMA-32" target="i0_VuYSUXwv3GOk7AtMA-34" edge="1">
          <mxGeometry width="50" height="50" relative="1" as="geometry">
            <mxPoint x="840" y="-762.8400000000001" as="sourcePoint" />
            <mxPoint x="1200" y="-714.8400000000001" as="targetPoint" />
          </mxGeometry>
        </mxCell>
        <mxCell id="i0_VuYSUXwv3GOk7AtMA-37" value="" style="endArrow=classic;entryX=0.5;entryY=0;entryDx=0;entryDy=0;" parent="1" source="i0_VuYSUXwv3GOk7AtMA-32" target="i0_VuYSUXwv3GOk7AtMA-35" edge="1">
          <mxGeometry width="50" height="50" relative="1" as="geometry">
            <mxPoint x="1230" y="-702.8400000000001" as="sourcePoint" />
            <mxPoint x="1280" y="-752.8400000000001" as="targetPoint" />
          </mxGeometry>
        </mxCell>
        <mxCell id="i0_VuYSUXwv3GOk7AtMA-38" value="Manipulation&#xa;der FRMCS-Datenübertragung auf der Luftschnittstelle" style="verticalAlign=middle;align=center;gradientColor=none;labelBackgroundColor=none;rounded=0;whiteSpace=wrap;fillColor=#D7E3BF;" parent="1" vertex="1">
          <mxGeometry x="500" y="-462.84000000000003" width="171" height="70" as="geometry" />
        </mxCell>
        <mxCell id="i0_VuYSUXwv3GOk7AtMA-39" value="Manipulation des Satellitenfunk an der Funktstelle" style="whiteSpace=wrap;rounded=0;fillColor=#D7E3BF;" parent="1" vertex="1">
          <mxGeometry x="1340" y="-587.8400000000001" width="120" height="52.5" as="geometry" />
        </mxCell>
        <mxCell id="i0_VuYSUXwv3GOk7AtMA-42" value="Schädigung der Güter" style="whiteSpace=wrap;" parent="1" vertex="1">
          <mxGeometry x="330" y="-1350" width="150" height="60" as="geometry" />
        </mxCell>
        <mxCell id="z6vCqgltYBY6s92kll8C-1" value="" style="rounded=0;orthogonalLoop=1;jettySize=auto;html=1;" parent="1" source="i0_VuYSUXwv3GOk7AtMA-42" target="i0_VuYSUXwv3GOk7AtMA-43" edge="1">
          <mxGeometry relative="1" as="geometry" />
        </mxCell>
        <mxCell id="z6vCqgltYBY6s92kll8C-13" value="" style="rounded=0;orthogonalLoop=1;jettySize=auto;html=1;" parent="1" source="i0_VuYSUXwv3GOk7AtMA-52" target="i0_VuYSUXwv3GOk7AtMA-43" edge="1">
          <mxGeometry relative="1" as="geometry" />
        </mxCell>
        <mxCell id="i0_VuYSUXwv3GOk7AtMA-43" value="Falschinformationen zur Ladung führen zur Schädigung &#xa;(z.B. Abstoßen verboten, max. Geschwindigkeit, ...)" style="whiteSpace=wrap;rounded=0;fillColor=#D7E3BF;" parent="1" vertex="1">
          <mxGeometry x="70" y="-1206.84" width="170" height="90" as="geometry" />
        </mxCell>
        <mxCell id="z6vCqgltYBY6s92kll8C-2" value="" style="rounded=0;orthogonalLoop=1;jettySize=auto;html=1;exitX=0.453;exitY=1.003;exitDx=0;exitDy=0;exitPerimeter=0;" parent="1" source="i0_VuYSUXwv3GOk7AtMA-45" target="i0_VuYSUXwv3GOk7AtMA-44" edge="1">
          <mxGeometry relative="1" as="geometry" />
        </mxCell>
        <mxCell id="z6vCqgltYBY6s92kll8C-3" value="" style="rounded=0;orthogonalLoop=1;jettySize=auto;html=1;" parent="1" source="i0_VuYSUXwv3GOk7AtMA-42" target="i0_VuYSUXwv3GOk7AtMA-44" edge="1">
          <mxGeometry relative="1" as="geometry" />
        </mxCell>
        <mxCell id="i0_VuYSUXwv3GOk7AtMA-44" value="Manipulation der Ablaufbremse" style="whiteSpace=wrap;rounded=0;fillColor=#D7E3BF;" parent="1" vertex="1">
          <mxGeometry x="410" y="-1169.1799999999998" width="130" height="52.34" as="geometry" />
        </mxCell>
        <mxCell id="5x-6YdXmlLBo3wP-KoqJ-10" style="edgeStyle=none;rounded=0;orthogonalLoop=1;jettySize=auto;html=1;" parent="1" source="i0_VuYSUXwv3GOk7AtMA-45" target="5x-6YdXmlLBo3wP-KoqJ-9" edge="1">
          <mxGeometry relative="1" as="geometry" />
        </mxCell>
        <mxCell id="i0_VuYSUXwv3GOk7AtMA-45" value="Zerstörung der Güterwagen" style="whiteSpace=wrap;" parent="1" vertex="1">
          <mxGeometry x="680" y="-1350" width="150" height="60" as="geometry" />
        </mxCell>
        <mxCell id="z6vCqgltYBY6s92kll8C-5" value="" style="rounded=0;orthogonalLoop=1;jettySize=auto;html=1;" parent="1" source="i0_VuYSUXwv3GOk7AtMA-45" target="i0_VuYSUXwv3GOk7AtMA-46" edge="1">
          <mxGeometry relative="1" as="geometry" />
        </mxCell>
        <mxCell id="z6vCqgltYBY6s92kll8C-6" value="" style="rounded=0;orthogonalLoop=1;jettySize=auto;html=1;" parent="1" source="i0_VuYSUXwv3GOk7AtMA-42" target="i0_VuYSUXwv3GOk7AtMA-46" edge="1">
          <mxGeometry relative="1" as="geometry" />
        </mxCell>
        <mxCell id="i0_VuYSUXwv3GOk7AtMA-46" value="Manipulation der automatisierten Abdrücklock" style="whiteSpace=wrap;" parent="1" vertex="1">
          <mxGeometry x="700.5" y="-1192.84" width="150" height="62" as="geometry" />
        </mxCell>
        <mxCell id="z6vCqgltYBY6s92kll8C-12" value="" style="rounded=0;orthogonalLoop=1;jettySize=auto;html=1;" parent="1" source="i0_VuYSUXwv3GOk7AtMA-51" target="i0_VuYSUXwv3GOk7AtMA-47" edge="1">
          <mxGeometry relative="1" as="geometry" />
        </mxCell>
        <mxCell id="i0_VuYSUXwv3GOk7AtMA-47" value="Manipulation der Informationen zur Gleisbelegung" style="whiteSpace=wrap;" parent="1" vertex="1">
          <mxGeometry x="-380" y="-1250" width="150" height="90" as="geometry" />
        </mxCell>
        <mxCell id="i0_VuYSUXwv3GOk7AtMA-48" value="Angriff Funkfernsteuerung" style="whiteSpace=wrap;rounded=0;fillColor=#D7E3BF;" parent="1" vertex="1">
          <mxGeometry x="480" y="-990" width="150" height="60" as="geometry" />
        </mxCell>
        <mxCell id="i0_VuYSUXwv3GOk7AtMA-51" value="Zerstörung der Infrastruktur" style="whiteSpace=wrap;" parent="1" vertex="1">
          <mxGeometry x="-380" y="-1350" width="150" height="60" as="geometry" />
        </mxCell>
        <mxCell id="i0_VuYSUXwv3GOk7AtMA-52" value="Blockade der Güterabfertigung (Ausfahrt)" style="whiteSpace=wrap;" parent="1" vertex="1">
          <mxGeometry x="-30" y="-1350" width="150" height="60" as="geometry" />
        </mxCell>
        <mxCell id="i0_VuYSUXwv3GOk7AtMA-66" value="" style="rounded=0;orthogonalLoop=1;jettySize=auto;html=1;" parent="1" source="kprr7zVfryuXTpy--eaS-3" target="i0_VuYSUXwv3GOk7AtMA-56" edge="1">
          <mxGeometry relative="1" as="geometry">
            <mxPoint x="1425" y="-1380" as="targetPoint" />
            <mxPoint x="1455" y="-1460" as="sourcePoint" />
          </mxGeometry>
        </mxCell>
        <mxCell id="i0_VuYSUXwv3GOk7AtMA-68" value="" style="rounded=0;orthogonalLoop=1;jettySize=auto;html=1;" parent="1" source="kprr7zVfryuXTpy--eaS-3" target="i0_VuYSUXwv3GOk7AtMA-55" edge="1">
          <mxGeometry relative="1" as="geometry">
            <mxPoint x="1460" y="-1502" as="sourcePoint" />
          </mxGeometry>
        </mxCell>
        <mxCell id="0azLL2mrelKw0A_vAqfH-21" value="" style="edgeStyle=none;rounded=0;orthogonalLoop=1;jettySize=auto;html=1;" parent="1" source="0azLL2mrelKw0A_vAqfH-20" target="i0_VuYSUXwv3GOk7AtMA-55" edge="1">
          <mxGeometry relative="1" as="geometry" />
        </mxCell>
        <mxCell id="5x-6YdXmlLBo3wP-KoqJ-4" style="edgeStyle=none;rounded=0;orthogonalLoop=1;jettySize=auto;html=1;" parent="1" source="i0_VuYSUXwv3GOk7AtMA-55" target="kprr7zVfryuXTpy--eaS-12" edge="1">
          <mxGeometry relative="1" as="geometry" />
        </mxCell>
        <mxCell id="5x-6YdXmlLBo3wP-KoqJ-11" style="edgeStyle=none;rounded=0;orthogonalLoop=1;jettySize=auto;html=1;" parent="1" source="i0_VuYSUXwv3GOk7AtMA-55" target="5x-6YdXmlLBo3wP-KoqJ-9" edge="1">
          <mxGeometry relative="1" as="geometry" />
        </mxCell>
        <mxCell id="i0_VuYSUXwv3GOk7AtMA-55" value="Diebstahl von Güterwagen " style="whiteSpace=wrap;" parent="1" vertex="1">
          <mxGeometry x="1810" y="-1380" width="150" height="60" as="geometry" />
        </mxCell>
        <mxCell id="5x-6YdXmlLBo3wP-KoqJ-5" style="edgeStyle=none;rounded=0;orthogonalLoop=1;jettySize=auto;html=1;" parent="1" source="i0_VuYSUXwv3GOk7AtMA-56" target="0azLL2mrelKw0A_vAqfH-11" edge="1">
          <mxGeometry relative="1" as="geometry" />
        </mxCell>
        <mxCell id="5x-6YdXmlLBo3wP-KoqJ-6" style="edgeStyle=none;rounded=0;orthogonalLoop=1;jettySize=auto;html=1;" parent="1" source="i0_VuYSUXwv3GOk7AtMA-56" target="0azLL2mrelKw0A_vAqfH-14" edge="1">
          <mxGeometry relative="1" as="geometry" />
        </mxCell>
        <mxCell id="i0_VuYSUXwv3GOk7AtMA-56" value="Falsche Zusammenstellung " style="whiteSpace=wrap;" parent="1" vertex="1">
          <mxGeometry x="1670" y="-1188.1799999999998" width="150" height="60" as="geometry" />
        </mxCell>
        <mxCell id="5x-6YdXmlLBo3wP-KoqJ-2" style="rounded=0;orthogonalLoop=1;jettySize=auto;html=1;exitX=0;exitY=0.25;exitDx=0;exitDy=0;exitPerimeter=0;" parent="1" source="kprr7zVfryuXTpy--eaS-12" target="i0_VuYSUXwv3GOk7AtMA-56" edge="1">
          <mxGeometry relative="1" as="geometry" />
        </mxCell>
        <mxCell id="5x-6YdXmlLBo3wP-KoqJ-3" style="edgeStyle=none;rounded=0;orthogonalLoop=1;jettySize=auto;html=1;exitX=0;exitY=0.75;exitDx=0;exitDy=0;exitPerimeter=0;" parent="1" source="kprr7zVfryuXTpy--eaS-12" target="0azLL2mrelKw0A_vAqfH-32" edge="1">
          <mxGeometry relative="1" as="geometry" />
        </mxCell>
        <mxCell id="kprr7zVfryuXTpy--eaS-12" value="" style="shape=or;whiteSpace=wrap;html=1;rotation=-90;" parent="1" vertex="1">
          <mxGeometry x="1870" y="-1281" width="30" height="40" as="geometry" />
        </mxCell>
        <mxCell id="i0_VuYSUXwv3GOk7AtMA-70" value="lesender Zugriff auf Wageninformationen" style="verticalAlign=middle;align=center;gradientColor=none;labelBackgroundColor=none;rounded=0;whiteSpace=wrap;fillColor=#D7E3BF;" parent="1" vertex="1">
          <mxGeometry x="1572" y="-980.5000000000001" width="160" height="41" as="geometry" />
        </mxCell>
        <mxCell id="z6vCqgltYBY6s92kll8C-9" value="" style="rounded=0;orthogonalLoop=1;jettySize=auto;html=1;" parent="1" source="i0_VuYSUXwv3GOk7AtMA-47" target="z6vCqgltYBY6s92kll8C-8" edge="1">
          <mxGeometry relative="1" as="geometry" />
        </mxCell>
        <mxCell id="z6vCqgltYBY6s92kll8C-8" value="Manipulation der Sensorik (Lichtschranken)" style="whiteSpace=wrap;rounded=0;fillColor=#D7E3BF;" parent="1" vertex="1">
          <mxGeometry x="-290" y="-1110" width="140" height="60" as="geometry" />
        </mxCell>
        <mxCell id="z6vCqgltYBY6s92kll8C-11" value="" style="rounded=0;orthogonalLoop=1;jettySize=auto;html=1;" parent="1" source="i0_VuYSUXwv3GOk7AtMA-47" target="z6vCqgltYBY6s92kll8C-10" edge="1">
          <mxGeometry relative="1" as="geometry" />
        </mxCell>
        <mxCell id="z6vCqgltYBY6s92kll8C-10" value="Manipulation der Gleisfreimeldung" style="whiteSpace=wrap;rounded=0;fillColor=#D7E3BF;" parent="1" vertex="1">
          <mxGeometry x="-480" y="-1106.84" width="150" height="56.84" as="geometry" />
        </mxCell>
        <mxCell id="0azLL2mrelKw0A_vAqfH-3" value="" style="rounded=0;orthogonalLoop=1;jettySize=auto;html=1;entryX=0.5;entryY=0;entryDx=0;entryDy=0;exitX=0.5;exitY=1;exitDx=0;exitDy=0;" parent="1" source="i0_VuYSUXwv3GOk7AtMA-46" target="i0_VuYSUXwv3GOk7AtMA-8" edge="1">
          <mxGeometry relative="1" as="geometry">
            <mxPoint x="647.9500000000003" y="-1279.82" as="sourcePoint" />
            <mxPoint x="534.9046266233768" y="-1152.3399999999997" as="targetPoint" />
          </mxGeometry>
        </mxCell>
        <mxCell id="0azLL2mrelKw0A_vAqfH-4" value="" style="rounded=0;orthogonalLoop=1;jettySize=auto;html=1;entryX=0.5;entryY=0;entryDx=0;entryDy=0;" parent="1" source="i0_VuYSUXwv3GOk7AtMA-46" target="i0_VuYSUXwv3GOk7AtMA-48" edge="1">
          <mxGeometry relative="1" as="geometry">
            <mxPoint x="795.0000000000005" y="-1132" as="sourcePoint" />
            <mxPoint x="865.0000000000005" y="-979.9999999999998" as="targetPoint" />
          </mxGeometry>
        </mxCell>
        <mxCell id="5x-6YdXmlLBo3wP-KoqJ-7" style="edgeStyle=none;rounded=0;orthogonalLoop=1;jettySize=auto;html=1;" parent="1" source="0azLL2mrelKw0A_vAqfH-11" target="i0_VuYSUXwv3GOk7AtMA-70" edge="1">
          <mxGeometry relative="1" as="geometry" />
        </mxCell>
        <mxCell id="0azLL2mrelKw0A_vAqfH-11" value="Manipulation Ablaufstellwerk (Weichenstellung)" style="whiteSpace=wrap;" parent="1" vertex="1">
          <mxGeometry x="1579" y="-1078" width="150" height="60" as="geometry" />
        </mxCell>
        <mxCell id="5x-6YdXmlLBo3wP-KoqJ-8" style="edgeStyle=none;rounded=0;orthogonalLoop=1;jettySize=auto;html=1;" parent="1" source="0azLL2mrelKw0A_vAqfH-14" target="0azLL2mrelKw0A_vAqfH-18" edge="1">
          <mxGeometry relative="1" as="geometry" />
        </mxCell>
        <mxCell id="0azLL2mrelKw0A_vAqfH-14" value="Manipulation Wagenliste" style="whiteSpace=wrap;" parent="1" vertex="1">
          <mxGeometry x="1769" y="-1078" width="150" height="60" as="geometry" />
        </mxCell>
        <mxCell id="0azLL2mrelKw0A_vAqfH-18" value="schreibender Zugriff auf Wagenliste" style="verticalAlign=middle;align=center;gradientColor=none;labelBackgroundColor=none;rounded=0;whiteSpace=wrap;fillColor=#D7E3BF;" parent="1" vertex="1">
          <mxGeometry x="1764" y="-980.5000000000001" width="160" height="41" as="geometry" />
        </mxCell>
        <mxCell id="0azLL2mrelKw0A_vAqfH-20" value="Finanzieller Schaden Betreiber" style="rounded=1;whiteSpace=wrap;" parent="1" vertex="1">
          <mxGeometry x="1173" y="-1550" width="222" height="48" as="geometry" />
        </mxCell>
        <mxCell id="0azLL2mrelKw0A_vAqfH-22" value="" style="rounded=0;orthogonalLoop=1;jettySize=auto;html=1;entryX=0.25;entryY=0;entryDx=0;entryDy=0;" parent="1" source="kprr7zVfryuXTpy--eaS-8" target="i0_VuYSUXwv3GOk7AtMA-56" edge="1">
          <mxGeometry relative="1" as="geometry">
            <mxPoint x="1700" y="-1190" as="targetPoint" />
            <mxPoint x="1489.5641137378798" y="-1492" as="sourcePoint" />
          </mxGeometry>
        </mxCell>
        <mxCell id="0azLL2mrelKw0A_vAqfH-23" value="" style="rounded=0;orthogonalLoop=1;jettySize=auto;html=1;" parent="1" source="kprr7zVfryuXTpy--eaS-11" target="i0_VuYSUXwv3GOk7AtMA-55" edge="1">
          <mxGeometry relative="1" as="geometry">
            <mxPoint x="1824.9425" y="-1370" as="targetPoint" />
            <mxPoint x="1540.0420000000004" y="-1492" as="sourcePoint" />
          </mxGeometry>
        </mxCell>
        <mxCell id="0azLL2mrelKw0A_vAqfH-24" value="" style="rounded=0;orthogonalLoop=1;jettySize=auto;html=1;" parent="1" source="kprr7zVfryuXTpy--eaS-2" target="i0_VuYSUXwv3GOk7AtMA-52" edge="1">
          <mxGeometry relative="1" as="geometry">
            <mxPoint x="171.2063732928682" y="-1280" as="sourcePoint" />
            <mxPoint x="160.69044006069817" y="-1196.84" as="targetPoint" />
          </mxGeometry>
        </mxCell>
        <mxCell id="0azLL2mrelKw0A_vAqfH-27" value="" style="rounded=0;orthogonalLoop=1;jettySize=auto;html=1;" parent="1" source="kprr7zVfryuXTpy--eaS-2" target="i0_VuYSUXwv3GOk7AtMA-51" edge="1">
          <mxGeometry relative="1" as="geometry">
            <mxPoint x="475" y="-1490" as="sourcePoint" />
            <mxPoint x="415" y="-1340" as="targetPoint" />
          </mxGeometry>
        </mxCell>
        <mxCell id="0azLL2mrelKw0A_vAqfH-28" value="" style="rounded=0;orthogonalLoop=1;jettySize=auto;html=1;" parent="1" source="0azLL2mrelKw0A_vAqfH-20" target="i0_VuYSUXwv3GOk7AtMA-45" edge="1">
          <mxGeometry relative="1" as="geometry">
            <mxPoint x="1717.5" y="-1178.84" as="targetPoint" />
            <mxPoint x="960.1019999999999" y="-1489.984" as="sourcePoint" />
          </mxGeometry>
        </mxCell>
        <mxCell id="0azLL2mrelKw0A_vAqfH-29" value="" style="rounded=0;orthogonalLoop=1;jettySize=auto;html=1;" parent="1" source="0azLL2mrelKw0A_vAqfH-20" target="i0_VuYSUXwv3GOk7AtMA-42" edge="1">
          <mxGeometry relative="1" as="geometry">
            <mxPoint x="655" y="-1340" as="targetPoint" />
            <mxPoint x="1708.5" y="-1492" as="sourcePoint" />
          </mxGeometry>
        </mxCell>
        <mxCell id="0azLL2mrelKw0A_vAqfH-30" value="" style="rounded=0;orthogonalLoop=1;jettySize=auto;html=1;" parent="1" source="kprr7zVfryuXTpy--eaS-3" target="i0_VuYSUXwv3GOk7AtMA-42" edge="1">
          <mxGeometry relative="1" as="geometry">
            <mxPoint x="415" y="-1340" as="targetPoint" />
            <mxPoint x="1653" y="-1504" as="sourcePoint" />
          </mxGeometry>
        </mxCell>
        <mxCell id="0azLL2mrelKw0A_vAqfH-31" value="" style="rounded=0;orthogonalLoop=1;jettySize=auto;html=1;" parent="1" source="kprr7zVfryuXTpy--eaS-3" target="i0_VuYSUXwv3GOk7AtMA-45" edge="1">
          <mxGeometry relative="1" as="geometry">
            <mxPoint x="377.5" y="-1340" as="targetPoint" />
            <mxPoint x="1375.984" y="-1490.992" as="sourcePoint" />
          </mxGeometry>
        </mxCell>
        <mxCell id="0azLL2mrelKw0A_vAqfH-32" value="Manipulation Ortungs-/ Registrierungsinformationen" style="verticalAlign=middle;align=center;fillColor=#fee599;gradientColor=none;labelBackgroundColor=none;rounded=0;whiteSpace=wrap;" parent="1" vertex="1">
          <mxGeometry x="2040" y="-1188.18" width="160" height="59.34" as="geometry" />
        </mxCell>
        <mxCell id="0azLL2mrelKw0A_vAqfH-34" value="" style="rounded=0;orthogonalLoop=1;jettySize=auto;html=1;" parent="1" source="i0_VuYSUXwv3GOk7AtMA-52" target="i0_VuYSUXwv3GOk7AtMA-3" edge="1">
          <mxGeometry relative="1" as="geometry">
            <mxPoint x="161.2063732928682" y="-1290" as="sourcePoint" />
            <mxPoint x="150.69044006069817" y="-1206.84" as="targetPoint" />
            <Array as="points" />
          </mxGeometry>
        </mxCell>
        <mxCell id="0azLL2mrelKw0A_vAqfH-35" value="" style="edgeStyle=none;rounded=0;orthogonalLoop=1;jettySize=auto;html=1;" parent="1" source="kprr7zVfryuXTpy--eaS-3" target="i0_VuYSUXwv3GOk7AtMA-6" edge="1">
          <mxGeometry relative="1" as="geometry">
            <mxPoint x="1818.1578947368425" y="-1118.84" as="sourcePoint" />
            <mxPoint x="1875" y="-1091.84" as="targetPoint" />
          </mxGeometry>
        </mxCell>
        <mxCell id="0azLL2mrelKw0A_vAqfH-36" value="" style="edgeStyle=none;rounded=0;orthogonalLoop=1;jettySize=auto;html=1;" parent="1" source="kprr7zVfryuXTpy--eaS-8" target="i0_VuYSUXwv3GOk7AtMA-6" edge="1">
          <mxGeometry relative="1" as="geometry">
            <mxPoint x="1471" y="-1492" as="sourcePoint" />
            <mxPoint x="1395" y="-1260" as="targetPoint" />
          </mxGeometry>
        </mxCell>
        <mxCell id="0azLL2mrelKw0A_vAqfH-37" value="" style="edgeStyle=none;rounded=0;orthogonalLoop=1;jettySize=auto;html=1;" parent="1" source="0azLL2mrelKw0A_vAqfH-20" target="i0_VuYSUXwv3GOk7AtMA-6" edge="1">
          <mxGeometry relative="1" as="geometry">
            <mxPoint x="1471" y="-1492" as="sourcePoint" />
            <mxPoint x="1395" y="-1260" as="targetPoint" />
          </mxGeometry>
        </mxCell>
        <mxCell id="5x-6YdXmlLBo3wP-KoqJ-13" style="edgeStyle=none;rounded=0;orthogonalLoop=1;jettySize=auto;html=1;" parent="1" source="5x-6YdXmlLBo3wP-KoqJ-9" target="5x-6YdXmlLBo3wP-KoqJ-12" edge="1">
          <mxGeometry relative="1" as="geometry" />
        </mxCell>
        <mxCell id="5x-6YdXmlLBo3wP-KoqJ-9" value="Manipulation der DAK" style="whiteSpace=wrap;" parent="1" vertex="1">
          <mxGeometry x="1190" y="-1202" width="150" height="62" as="geometry" />
        </mxCell>
        <mxCell id="5x-6YdXmlLBo3wP-KoqJ-12" value="Öffnung der Kupplung zur Unzeit per Fernsteuerung" style="whiteSpace=wrap;rounded=0;fillColor=#D7E3BF;" parent="1" vertex="1">
          <mxGeometry x="1190" y="-1070" width="150" height="62" as="geometry" />
        </mxCell>
      </root>
    </mxGraphModel>
  </diagram>
</mxfile>
